{"title":"Pawn.Sacrifice.2014.BRRip.720p.x264.AAC-PRiSTiNE [P2PDL]","uid":12953239,"size":745824559,"categoryP":"video","categoryS":"hd___movies","magnet":"?xt=urn:btih:4c12aed749e02fd27f923ef33074872332870802&amp;dn=Pawn.Sacrifice.2014.BRRip.720p.x264.AAC-PRiSTiNE+%5BP2PDL%5D&amp;tr=udp%3A%2F%2Ftracker.leechers-paradise.org%3A6969&amp;tr=udp%3A%2F%2Fzer0day.ch%3A1337&amp;tr=udp%3A%2F%2Fopen.demonii.com%3A1337&amp;tr=udp%3A%2F%2Ftracker.coppersurfer.tk%3A6969&amp;tr=udp%3A%2F%2Fexodus.desync.com%3A6969","seeders":0,"leechers":5,"uploader":"VYTOP2PDL","files":7,"time":1449758313,"description":"Pawn.Sacrifice.2014.BRRip.720p.x264.AC-PRiSTiNE\r\n\r\n\r\nGenre: Biography, Drama    \nhttp://www.imdb.com/title/tt1596345/\r\n\r\n\r\nGeneral\r\nFormat                                   : MPEG-4\r\nFile size                                : 697 MiB\r\nDuration                                 : 1h 55mn\r\nOverall bit rate                         : 842 Kbps\r\n\r\nVideo\r\nFormat                                   : AVC\r\nBit rate                                 : 759 Kbps\r\nWidth                                    : 1 280 pixels\r\nHeight                                   : 536 pixels\r\nDisplay aspect ratio                     : 2.40:1\r\nFrame rate mode                          : Constant\r\nFrame rate                               : 23.976 fps\r\nBit depth                                : 8 bits\r\nStream size                              : 628 MiB (90%)\r\nWriting library                          : x264\r\n\r\nAudio\r\nFormat                                   : AAC\r\nBit rate mode                            : Variable\r\nBit rate                                 : 79.6 Kbps\r\nChannel(s)                               : 2 channels\r\nChannel positions                        : Front: L R\r\nSampling rate                            : 48.0 KHz\r\nStream size                              : 65.9 MiB (9%)\r\nLanguage                                 : English\r\n\r\nSubtitle                                 : Yes (English)\r\n \nhttp://ititli.com/5s \nhttp://ititli.com/5Y \nhttp://ititli.com/54 \nhttp://ititli.com/5K \nhttp://ititli.com/5V \nhttp://ititli.com/5t \nhttp://ititli.com/5L \nhttp://ititli.com/5d \nhttp://ititli.com/50\r\n\r\n----------------------------------------------------------------------------------------------------\r\n\r\n\r\nEncoder Notes: Looking For Early Access To Anything You Can Provide WEBDL, DVDScr, DVDR, BluRay,\r\nDirect Audio, Music Releases and Seedboxes. If You Got anything to offer please contact us.\r\n\r\nSupport us by donating BC - 1FgwdzPsd1y25Gea8wP1qni35uGCtmkRCD\r\n\r\nSendsomelove!\r\nFind  us  and join us!","torrent":{"xt":"urn:btih:4c12aed749e02fd27f923ef33074872332870802","amp;dn":"Pawn.Sacrifice.2014.BRRip.720p.x264.AAC-PRiSTiNE+%5BP2PDL%5D","amp;tr":["udp%3A%2F%2Ftracker.leechers-paradise.org%3A6969","udp%3A%2F%2Fzer0day.ch%3A1337","udp%3A%2F%2Fopen.demonii.com%3A1337","udp%3A%2F%2Ftracker.coppersurfer.tk%3A6969","udp%3A%2F%2Fexodus.desync.com%3A6969"],"infoHash":"4c12aed749e02fd27f923ef33074872332870802","infoHashBuffer":{"type":"Buffer","data":[76,18,174,215,73,224,47,210,127,146,62,243,48,116,135,35,50,135,8,2]},"announce":[],"urlList":[]}}